<svg width="222" height="38" viewBox="0 0 222 38" fill="none" xmlns="http://www.w3.org/2000/svg">
<rect width="222" height="38" fill="#F5F5F5"/>
<rect width="222" height="38" fill="#D9CF8D"/>
<path d="M17.168 15.414C17.48 15.1887 17.7833 14.972 18.078 14.764C18.39 14.5387 18.6327 14.3567 18.806 14.218C18.442 13.958 17.974 13.6807 17.402 13.386C16.83 13.074 16.2147 12.7707 15.556 12.476C14.9147 12.164 14.2647 11.8953 13.606 11.67L15.53 9.278C16.258 9.538 17.0207 9.84133 17.818 10.188C18.6327 10.5173 19.4213 10.8727 20.184 11.254C20.964 11.6353 21.6487 12.008 22.238 12.372L23.018 14.4C22.8447 14.556 22.602 14.7553 22.29 14.998C21.9953 15.2407 21.6573 15.5093 21.276 15.804C20.912 16.0987 20.548 16.3847 20.184 16.662C19.8373 16.922 19.534 17.1387 19.274 17.312L17.168 15.414ZM12.748 27.4C13.4587 27.608 14.1433 27.764 14.802 27.868C15.478 27.972 16.128 28.024 16.752 28.024C17.2027 28.024 17.5927 27.972 17.922 27.868C18.2687 27.7467 18.5373 27.556 18.728 27.296C18.9187 27.036 19.014 26.7067 19.014 26.308C19.014 25.9267 18.91 25.502 18.702 25.034C18.5113 24.566 18.26 24.098 17.948 23.63C17.6533 23.162 17.3327 22.72 16.986 22.304C16.6567 21.888 16.3447 21.5327 16.05 21.238C15.7207 20.9087 15.348 20.5707 14.932 20.224C14.516 19.86 14.0827 19.5133 13.632 19.184L16.18 17.052C16.5787 17.4507 16.9427 17.8147 17.272 18.144C17.6187 18.4733 17.9567 18.8113 18.286 19.158C19.222 20.094 20.0107 20.9867 20.652 21.836C21.2933 22.668 21.7787 23.4913 22.108 24.306C22.4547 25.1033 22.628 25.9007 22.628 26.698C22.628 27.5647 22.4807 28.2927 22.186 28.882C21.9087 29.454 21.5273 29.9133 21.042 30.26C20.5567 30.6067 20.002 30.8493 19.378 30.988C18.754 31.144 18.1127 31.222 17.454 31.222C16.726 31.222 15.998 31.1787 15.27 31.092C14.542 31.0227 13.866 30.936 13.242 30.832L12.748 27.4ZM27.152 29.402C26.996 28.7433 26.7793 28.0327 26.502 27.27C26.2247 26.5073 25.8953 25.736 25.514 24.956C25.15 24.176 24.76 23.4307 24.344 22.72C23.928 22.0093 23.5033 21.3767 23.07 20.822L25.878 19.34C26.2767 19.8253 26.6927 20.4233 27.126 21.134C27.5593 21.8273 27.9753 22.5727 28.374 23.37C28.79 24.15 29.1627 24.9213 29.492 25.684C29.8387 26.4293 30.1073 27.1053 30.298 27.712L27.152 29.402ZM14.334 24.462C13.8487 24.9647 13.268 25.528 12.592 26.152C11.916 26.7587 11.162 27.3827 10.33 28.024C9.51533 28.648 8.64 29.246 7.704 29.818L5.728 27.01C6.3 26.7153 6.88933 26.3687 7.496 25.97C8.10267 25.554 8.70067 25.112 9.29 24.644C9.89667 24.176 10.46 23.7167 10.98 23.266C11.5173 22.798 11.9767 22.3473 12.358 21.914L14.334 24.462ZM39.684 9.07C40.308 9.26067 41.088 9.46 42.024 9.668C42.96 9.876 43.9393 10.084 44.962 10.292C45.9847 10.4827 46.9467 10.6473 47.848 10.786C48.7667 10.9247 49.512 11.0287 50.084 11.098L49.304 14.27C48.784 14.2007 48.1513 14.1053 47.406 13.984C46.678 13.8453 45.898 13.698 45.066 13.542C44.2513 13.386 43.4453 13.23 42.648 13.074C41.8507 12.9007 41.1227 12.736 40.464 12.58C39.8053 12.424 39.268 12.294 38.852 12.19L39.684 9.07ZM39.84 14.296C39.7533 14.6427 39.658 15.0933 39.554 15.648C39.4673 16.1853 39.3807 16.7487 39.294 17.338C39.2073 17.9273 39.1207 18.4907 39.034 19.028C38.9647 19.5653 38.904 20.016 38.852 20.38C40.0307 19.5307 41.2613 18.9067 42.544 18.508C43.844 18.1093 45.17 17.91 46.522 17.91C48.0473 17.91 49.3473 18.1873 50.422 18.742C51.4967 19.2967 52.3113 20.0247 52.866 20.926C53.438 21.8273 53.724 22.8067 53.724 23.864C53.724 25.0427 53.4727 26.1347 52.97 27.14C52.4673 28.1453 51.644 29.0033 50.5 29.714C49.356 30.4247 47.8567 30.9273 46.002 31.222C44.1473 31.5167 41.868 31.5513 39.164 31.326L38.176 27.92C40.776 28.2667 42.96 28.3187 44.728 28.076C46.496 27.816 47.8307 27.3133 48.732 26.568C49.6507 25.8053 50.11 24.878 50.11 23.786C50.11 23.214 49.9453 22.7113 49.616 22.278C49.2867 21.8273 48.8273 21.4807 48.238 21.238C47.6487 20.978 46.9813 20.848 46.236 20.848C44.78 20.848 43.4107 21.1167 42.128 21.654C40.8627 22.174 39.8227 22.928 39.008 23.916C38.7827 24.1933 38.592 24.4533 38.436 24.696C38.2973 24.9213 38.1673 25.164 38.046 25.424L35.056 24.67C35.16 24.1673 35.264 23.578 35.368 22.902C35.472 22.2087 35.576 21.472 35.68 20.692C35.784 19.8947 35.8793 19.0973 35.966 18.3C36.0527 17.5027 36.1307 16.714 36.2 15.934C36.2693 15.154 36.3213 14.4433 36.356 13.802L39.84 14.296ZM66.386 9.122C66.2993 9.434 66.204 9.824 66.1 10.292C65.996 10.76 65.892 11.254 65.788 11.774C65.684 12.2767 65.5887 12.7707 65.502 13.256C65.4327 13.7413 65.3807 14.166 65.346 14.53C65.658 14.01 66.0307 13.5073 66.464 13.022C66.8973 12.5193 67.3827 12.0687 67.92 11.67C68.4747 11.254 69.0727 10.9247 69.714 10.682C70.3727 10.4393 71.066 10.318 71.794 10.318C73.0073 10.318 74.0993 10.6907 75.07 11.436C76.0407 12.1813 76.8033 13.2473 77.358 14.634C77.93 16.0207 78.216 17.6673 78.216 19.574C78.216 21.4113 77.9473 23.0233 77.41 24.41C76.8727 25.7793 76.1013 26.9493 75.096 27.92C74.0907 28.8907 72.886 29.6793 71.482 30.286C70.0953 30.91 68.544 31.378 66.828 31.69L64.852 28.674C66.2907 28.4487 67.608 28.1453 68.804 27.764C70.0173 27.3653 71.0573 26.828 71.924 26.152C72.808 25.476 73.484 24.6093 73.952 23.552C74.4373 22.4773 74.68 21.16 74.68 19.6C74.68 18.2653 74.5413 17.1387 74.264 16.22C73.9867 15.284 73.5793 14.5733 73.042 14.088C72.522 13.6027 71.898 13.36 71.17 13.36C70.4073 13.36 69.6793 13.6113 68.986 14.114C68.2927 14.6167 67.6687 15.2753 67.114 16.09C66.5767 16.8873 66.1433 17.754 65.814 18.69C65.502 19.626 65.3287 20.5273 65.294 21.394C65.2767 21.758 65.268 22.1567 65.268 22.59C65.2853 23.0233 65.3373 23.5433 65.424 24.15L62.226 24.358C62.1567 23.8553 62.0787 23.2313 61.992 22.486C61.9227 21.7233 61.888 20.9 61.888 20.016C61.888 19.4093 61.9053 18.7593 61.94 18.066C61.992 17.3727 62.044 16.6707 62.096 15.96C62.1653 15.232 62.2433 14.504 62.33 13.776C62.434 13.048 62.5293 12.3547 62.616 11.696C62.6853 11.1933 62.7373 10.6993 62.772 10.214C62.8067 9.72867 62.824 9.31267 62.824 8.966L66.386 9.122ZM97.482 11.072H107.752V13.88H97.482V11.072ZM96.598 19.002H99.536V32.288H96.598V19.002ZM97.3 7.874L100.394 8.498C99.9433 10.3353 99.3107 12.0773 98.496 13.724C97.6987 15.3533 96.78 16.7053 95.74 17.78C95.5667 17.6067 95.324 17.3987 95.012 17.156C94.7 16.896 94.3793 16.6447 94.05 16.402C93.738 16.1593 93.4607 15.9687 93.218 15.83C94.1887 14.9113 95.0207 13.75 95.714 12.346C96.4073 10.942 96.936 9.45133 97.3 7.874ZM102.916 17.494C103.159 19.262 103.505 20.9347 103.956 22.512C104.407 24.0893 105.005 25.4933 105.75 26.724C106.513 27.9547 107.457 28.9253 108.584 29.636C108.341 29.8267 108.081 30.0693 107.804 30.364C107.544 30.676 107.293 30.9967 107.05 31.326C106.807 31.6727 106.608 31.9847 106.452 32.262C105.204 31.326 104.173 30.1473 103.358 28.726C102.543 27.2873 101.885 25.658 101.382 23.838C100.897 22.0007 100.507 20.016 100.212 17.884L102.916 17.494ZM106.27 18.716L108.48 20.692C107.752 21.3853 106.963 22.0787 106.114 22.772C105.265 23.448 104.493 24.0287 103.8 24.514L102.006 22.746C102.457 22.3993 102.942 22.0007 103.462 21.55C103.982 21.082 104.493 20.6053 104.996 20.12C105.499 19.6173 105.923 19.1493 106.27 18.716ZM84.066 11.878H94.856V14.764H84.066V11.878ZM88.096 17.312H92.334V20.146H88.096V17.312ZM87.992 7.9H90.982V12.788H87.992V7.9ZM91.32 17.312H94.154C94.154 17.312 94.154 17.39 94.154 17.546C94.154 17.6847 94.154 17.858 94.154 18.066C94.154 18.2567 94.154 18.4127 94.154 18.534C94.1193 20.6487 94.076 22.4513 94.024 23.942C93.9893 25.4153 93.9373 26.6373 93.868 27.608C93.816 28.5613 93.738 29.3153 93.634 29.87C93.53 30.4247 93.4 30.8147 93.244 31.04C92.984 31.404 92.724 31.6553 92.464 31.794C92.204 31.95 91.892 32.0627 91.528 32.132C91.1987 32.2013 90.8 32.2447 90.332 32.262C89.864 32.2793 89.3613 32.2793 88.824 32.262C88.8067 31.8287 88.7287 31.352 88.59 30.832C88.4513 30.312 88.278 29.8613 88.07 29.48C88.486 29.5147 88.8587 29.5407 89.188 29.558C89.5173 29.5753 89.7773 29.584 89.968 29.584C90.1413 29.584 90.28 29.558 90.384 29.506C90.5053 29.454 90.618 29.35 90.722 29.194C90.826 29.038 90.904 28.7347 90.956 28.284C91.0253 27.8333 91.0773 27.1747 91.112 26.308C91.164 25.4413 91.2073 24.3233 91.242 22.954C91.2767 21.5673 91.3027 19.8773 91.32 17.884V17.312ZM86.718 13.698H89.474V18.82C89.474 20.2413 89.3873 21.732 89.214 23.292C89.058 24.852 88.72 26.412 88.2 27.972C87.68 29.532 86.8827 31.014 85.808 32.418C85.5307 32.0887 85.1667 31.742 84.716 31.378C84.2827 31.0313 83.8753 30.7367 83.494 30.494C84.2047 29.558 84.7767 28.5873 85.21 27.582C85.6433 26.5593 85.964 25.5453 86.172 24.54C86.3973 23.5173 86.5447 22.5207 86.614 21.55C86.6833 20.5793 86.718 19.6607 86.718 18.794V13.698ZM104.892 14.14L107.128 15.804C106.469 16.324 105.698 16.8527 104.814 17.39C103.93 17.91 102.985 18.4127 101.98 18.898C100.992 19.366 99.9867 19.7993 98.964 20.198C97.9413 20.5967 96.9707 20.9347 96.052 21.212C95.8613 20.8133 95.5927 20.3713 95.246 19.886C94.8993 19.3833 94.5527 18.9587 94.206 18.612C95.1247 18.4213 96.0867 18.17 97.092 17.858C98.1147 17.546 99.1113 17.1907 100.082 16.792C101.053 16.376 101.954 15.9513 102.786 15.518C103.618 15.0673 104.32 14.608 104.892 14.14ZM124.366 12.19C124.193 13.5073 123.967 14.9113 123.69 16.402C123.413 17.8927 123.04 19.4007 122.572 20.926C122.069 22.6767 121.48 24.1847 120.804 25.45C120.128 26.7153 119.383 27.6947 118.568 28.388C117.771 29.064 116.895 29.402 115.942 29.402C114.989 29.402 114.105 29.0813 113.29 28.44C112.493 27.7813 111.851 26.88 111.366 25.736C110.898 24.592 110.664 23.292 110.664 21.836C110.664 20.328 110.967 18.9067 111.574 17.572C112.181 16.2373 113.021 15.0587 114.096 14.036C115.188 12.996 116.453 12.1813 117.892 11.592C119.348 11.0027 120.917 10.708 122.598 10.708C124.21 10.708 125.657 10.968 126.94 11.488C128.24 12.008 129.349 12.7273 130.268 13.646C131.187 14.5647 131.889 15.6393 132.374 16.87C132.859 18.1007 133.102 19.4267 133.102 20.848C133.102 22.668 132.729 24.2973 131.984 25.736C131.239 27.1747 130.129 28.362 128.656 29.298C127.2 30.234 125.38 30.8753 123.196 31.222L121.246 28.128C121.749 28.076 122.191 28.0153 122.572 27.946C122.953 27.8767 123.317 27.7987 123.664 27.712C124.496 27.504 125.267 27.2093 125.978 26.828C126.706 26.4293 127.339 25.944 127.876 25.372C128.413 24.7827 128.829 24.098 129.124 23.318C129.436 22.538 129.592 21.68 129.592 20.744C129.592 19.7213 129.436 18.7853 129.124 17.936C128.812 17.0867 128.353 16.35 127.746 15.726C127.139 15.0847 126.403 14.5993 125.536 14.27C124.669 13.9233 123.673 13.75 122.546 13.75C121.159 13.75 119.937 14.0013 118.88 14.504C117.823 14.9893 116.93 15.622 116.202 16.402C115.474 17.182 114.919 18.0227 114.538 18.924C114.174 19.8253 113.992 20.6833 113.992 21.498C113.992 22.3647 114.096 23.0927 114.304 23.682C114.512 24.254 114.763 24.6873 115.058 24.982C115.37 25.2593 115.699 25.398 116.046 25.398C116.41 25.398 116.765 25.216 117.112 24.852C117.476 24.4707 117.831 23.8987 118.178 23.136C118.525 22.3733 118.871 21.4113 119.218 20.25C119.617 19.002 119.955 17.6673 120.232 16.246C120.509 14.8247 120.709 13.438 120.83 12.086L124.366 12.19ZM138.477 11.332C140.384 11.5573 142.134 11.696 143.729 11.748C145.341 11.7827 146.832 11.748 148.201 11.644C149.397 11.54 150.541 11.384 151.633 11.176C152.725 10.968 153.8 10.6993 154.857 10.37L155.273 13.36C154.337 13.62 153.323 13.8453 152.231 14.036C151.139 14.2267 150.021 14.374 148.877 14.478C147.542 14.582 146 14.634 144.249 14.634C142.516 14.6167 140.652 14.5127 138.659 14.322L138.477 11.332ZM138.009 16.792C139.586 16.9307 141.094 17.026 142.533 17.078C143.972 17.13 145.324 17.13 146.589 17.078C147.854 17.026 149.007 16.9567 150.047 16.87C151.451 16.7487 152.656 16.5753 153.661 16.35C154.666 16.1073 155.542 15.882 156.287 15.674L156.807 18.742C156.027 18.9327 155.169 19.1147 154.233 19.288C153.297 19.4613 152.3 19.6087 151.243 19.73C150.134 19.834 148.86 19.9207 147.421 19.99C146 20.042 144.5 20.0593 142.923 20.042C141.346 20.0073 139.768 19.9467 138.191 19.86L138.009 16.792ZM146.693 12.06C146.572 11.5747 146.433 11.098 146.277 10.63C146.121 10.1447 145.948 9.65067 145.757 9.148L149.267 8.758C149.371 9.57267 149.501 10.3787 149.657 11.176C149.83 11.956 150.021 12.71 150.229 13.438C150.454 14.166 150.671 14.868 150.879 15.544C151.087 16.1333 151.356 16.8093 151.685 17.572C152.032 18.3173 152.404 19.0713 152.803 19.834C153.202 20.5793 153.6 21.2553 153.999 21.862C154.172 22.1047 154.346 22.3387 154.519 22.564C154.71 22.772 154.926 22.98 155.169 23.188L153.583 25.58C153.098 25.476 152.491 25.372 151.763 25.268C151.052 25.164 150.307 25.0687 149.527 24.982C148.764 24.8953 148.062 24.8173 147.421 24.748L147.681 22.278C148.218 22.33 148.799 22.382 149.423 22.434C150.064 22.486 150.576 22.538 150.957 22.59C150.264 21.4287 149.666 20.2933 149.163 19.184C148.678 18.0747 148.27 17.0433 147.941 16.09C147.733 15.4833 147.56 14.9633 147.421 14.53C147.282 14.0793 147.152 13.6633 147.031 13.282C146.927 12.8833 146.814 12.476 146.693 12.06ZM143.001 22.824C142.689 23.2573 142.42 23.708 142.195 24.176C141.97 24.6267 141.857 25.138 141.857 25.71C141.857 26.6633 142.299 27.3567 143.183 27.79C144.084 28.206 145.393 28.414 147.109 28.414C148.34 28.414 149.501 28.362 150.593 28.258C151.702 28.154 152.716 28.0153 153.635 27.842L153.453 31.144C152.552 31.3 151.538 31.4213 150.411 31.508C149.284 31.5947 148.192 31.638 147.135 31.638C145.402 31.638 143.902 31.456 142.637 31.092C141.389 30.728 140.418 30.1647 139.725 29.402C139.032 28.622 138.676 27.6167 138.659 26.386C138.642 25.554 138.746 24.8087 138.971 24.15C139.214 23.474 139.482 22.824 139.777 22.2L143.001 22.824ZM165.855 10.37C166.063 10.3873 166.358 10.4133 166.739 10.448C167.12 10.4653 167.528 10.474 167.961 10.474C168.238 10.474 168.663 10.474 169.235 10.474C169.824 10.474 170.474 10.474 171.185 10.474C171.913 10.4567 172.65 10.4393 173.395 10.422C174.14 10.3873 174.816 10.3613 175.423 10.344C176.047 10.3267 176.524 10.3093 176.853 10.292C177.165 10.2573 177.494 10.2227 177.841 10.188C178.188 10.136 178.482 10.0753 178.725 10.006L180.467 12.294C180.242 12.4153 179.99 12.5627 179.713 12.736C179.436 12.9093 179.21 13.0567 179.037 13.178C178.656 13.4553 178.222 13.7847 177.737 14.166C177.269 14.5473 176.749 14.9547 176.177 15.388C175.622 15.8213 175.059 16.2633 174.487 16.714C173.915 17.1473 173.343 17.5807 172.771 18.014C173.204 17.8927 173.638 17.806 174.071 17.754C174.522 17.702 174.912 17.676 175.241 17.676C176.766 17.676 178.11 17.9533 179.271 18.508C180.432 19.0627 181.334 19.8167 181.975 20.77C182.616 21.7233 182.937 22.8067 182.937 24.02C182.937 25.736 182.426 27.192 181.403 28.388C180.398 29.584 178.846 30.442 176.749 30.962C174.669 31.4993 172.026 31.6467 168.819 31.404L167.909 28.024C169.712 28.2493 171.324 28.336 172.745 28.284C174.166 28.2147 175.362 28.0067 176.333 27.66C177.321 27.296 178.075 26.8107 178.595 26.204C179.115 25.58 179.375 24.8433 179.375 23.994C179.375 22.9713 178.933 22.122 178.049 21.446C177.182 20.7527 176.004 20.406 174.513 20.406C173.508 20.406 172.563 20.5533 171.679 20.848C170.812 21.1427 169.989 21.5413 169.209 22.044C168.446 22.5467 167.701 23.1273 166.973 23.786C166.262 24.4273 165.56 25.1033 164.867 25.814L162.423 23.24C163.116 22.72 163.905 22.1047 164.789 21.394C165.673 20.6833 166.583 19.9467 167.519 19.184C168.472 18.404 169.391 17.6413 170.275 16.896C171.159 16.1507 171.956 15.466 172.667 14.842C173.378 14.2007 173.941 13.6633 174.357 13.23C174.062 13.23 173.698 13.2387 173.265 13.256C172.849 13.2733 172.39 13.2993 171.887 13.334C171.384 13.3687 170.89 13.4033 170.405 13.438C169.92 13.4553 169.469 13.4727 169.053 13.49C168.654 13.5073 168.325 13.5247 168.065 13.542C167.753 13.5593 167.389 13.594 166.973 13.646C166.557 13.6807 166.202 13.724 165.907 13.776L165.855 10.37ZM205.297 11.254C204.881 11.5487 204.474 11.8607 204.075 12.19C203.676 12.502 203.33 12.788 203.035 13.048C202.602 13.3773 202.082 13.7847 201.475 14.27C200.886 14.738 200.262 15.232 199.603 15.752C198.962 16.2547 198.338 16.7487 197.731 17.234C197.124 17.7193 196.604 18.1527 196.171 18.534C195.72 18.9327 195.417 19.262 195.261 19.522C195.105 19.7647 195.105 20.0073 195.261 20.25C195.434 20.4927 195.755 20.822 196.223 21.238C196.604 21.5673 197.09 21.9747 197.679 22.46C198.286 22.9453 198.936 23.4827 199.629 24.072C200.34 24.644 201.059 25.242 201.787 25.866C202.532 26.4727 203.243 27.0793 203.919 27.686C204.612 28.2753 205.228 28.83 205.765 29.35L202.723 32.132C201.995 31.3173 201.241 30.5113 200.461 29.714C200.062 29.3153 199.542 28.83 198.901 28.258C198.277 27.6687 197.592 27.0533 196.847 26.412C196.119 25.7707 195.391 25.138 194.663 24.514C193.935 23.8727 193.276 23.3007 192.687 22.798C191.82 22.07 191.257 21.4027 190.997 20.796C190.754 20.1893 190.789 19.5913 191.101 19.002C191.43 18.3953 192.028 17.7367 192.895 17.026C193.415 16.6273 194.004 16.1593 194.663 15.622C195.322 15.0673 195.998 14.504 196.691 13.932C197.384 13.3427 198.043 12.7793 198.667 12.242C199.291 11.6873 199.82 11.202 200.253 10.786C200.634 10.4047 201.016 10.0147 201.397 9.616C201.778 9.21733 202.064 8.87067 202.255 8.576L205.297 11.254Z" fill="#82AE46"/>
<ellipse cx="174" cy="24" rx="7" ry="6" fill="#82AE46"/>
<ellipse cx="117.253" cy="18.9642" rx="4.5" ry="8.11633" transform="rotate(30 117.253 18.9642)" fill="#82AE46"/>
<path d="M173.5 29.8164C175.312 29.8164 176.781 28.7146 176.781 27.3555C176.781 25.9963 175.312 24.8945 173.5 24.8945C171.688 24.8945 170.219 25.9963 170.219 27.3555C170.219 28.7146 171.688 29.8164 173.5 29.8164Z" fill="#D9CF8D"/>
<path d="M169.152 26.5352C169.832 26.5352 170.383 25.617 170.383 24.4844C170.383 23.3518 169.832 22.4336 169.152 22.4336C168.473 22.4336 167.922 23.3518 167.922 24.4844C167.922 25.617 168.473 26.5352 169.152 26.5352Z" fill="#D9CF8D"/>
<path d="M171.818 24.4023C172.679 24.4023 173.377 23.3373 173.377 22.0234C173.377 20.7096 172.679 19.6445 171.818 19.6445C170.958 19.6445 170.26 20.7096 170.26 22.0234C170.26 23.3373 170.958 24.4023 171.818 24.4023Z" fill="#D9CF8D"/>
<path d="M175.182 24.4023C176.042 24.4023 176.74 23.3373 176.74 22.0234C176.74 20.7096 176.042 19.6445 175.182 19.6445C174.321 19.6445 173.623 20.7096 173.623 22.0234C173.623 23.3373 174.321 24.4023 175.182 24.4023Z" fill="#D9CF8D"/>
<path d="M177.848 26.5352C178.527 26.5352 179.078 25.617 179.078 24.4844C179.078 23.3518 178.527 22.4336 177.848 22.4336C177.168 22.4336 176.617 23.3518 176.617 24.4844C176.617 25.617 177.168 26.5352 177.848 26.5352Z" fill="#D9CF8D"/>
<path opacity="0.7" d="M173.5 29.6113C175.086 29.6113 176.371 28.6932 176.371 27.5605C176.371 26.4279 175.086 25.5098 173.5 25.5098C171.914 25.5098 170.629 26.4279 170.629 27.5605C170.629 28.6932 171.914 29.6113 173.5 29.6113Z" fill="#C7BC73"/>
<path opacity="0.7" d="M169.152 26.3301C169.605 26.3301 169.973 25.5955 169.973 24.6895C169.973 23.7834 169.605 23.0488 169.152 23.0488C168.699 23.0488 168.332 23.7834 168.332 24.6895C168.332 25.5955 168.699 26.3301 169.152 26.3301Z" fill="#C7BC73"/>
<path opacity="0.7" d="M171.818 24.1973C172.453 24.1973 172.967 23.3158 172.967 22.2285C172.967 21.1412 172.453 20.2598 171.818 20.2598C171.184 20.2598 170.67 21.1412 170.67 22.2285C170.67 23.3158 171.184 24.1973 171.818 24.1973Z" fill="#C7BC73"/>
<path opacity="0.7" d="M175.182 24.1973C175.816 24.1973 176.33 23.3158 176.33 22.2285C176.33 21.1412 175.816 20.2598 175.182 20.2598C174.547 20.2598 174.033 21.1412 174.033 22.2285C174.033 23.3158 174.547 24.1973 175.182 24.1973Z" fill="#C7BC73"/>
<path opacity="0.7" d="M177.848 26.3301C178.301 26.3301 178.668 25.5955 178.668 24.6895C178.668 23.7834 178.301 23.0488 177.848 23.0488C177.395 23.0488 177.027 23.7834 177.027 24.6895C177.027 25.5955 177.395 26.3301 177.848 26.3301Z" fill="#C7BC73"/>
<path d="M44.5 29.2148C46.1396 29.2148 47.4688 28.218 47.4688 26.9883C47.4688 25.7586 46.1396 24.7617 44.5 24.7617C42.8604 24.7617 41.5312 25.7586 41.5312 26.9883C41.5312 28.218 42.8604 29.2148 44.5 29.2148Z" fill="#D9CF8D"/>
<path d="M40.5664 26.2461C41.1813 26.2461 41.6797 25.4154 41.6797 24.3906C41.6797 23.3659 41.1813 22.5352 40.5664 22.5352C39.9516 22.5352 39.4531 23.3659 39.4531 24.3906C39.4531 25.4154 39.9516 26.2461 40.5664 26.2461Z" fill="#D9CF8D"/>
<path d="M42.9785 24.3164C43.7573 24.3164 44.3887 23.3528 44.3887 22.1641C44.3887 20.9754 43.7573 20.0117 42.9785 20.0117C42.1997 20.0117 41.5684 20.9754 41.5684 22.1641C41.5684 23.3528 42.1997 24.3164 42.9785 24.3164Z" fill="#D9CF8D"/>
<path d="M46.0215 24.3164C46.8003 24.3164 47.4316 23.3528 47.4316 22.1641C47.4316 20.9754 46.8003 20.0117 46.0215 20.0117C45.2427 20.0117 44.6113 20.9754 44.6113 22.1641C44.6113 23.3528 45.2427 24.3164 46.0215 24.3164Z" fill="#D9CF8D"/>
<path d="M48.4336 26.2461C49.0484 26.2461 49.5469 25.4154 49.5469 24.3906C49.5469 23.3659 49.0484 22.5352 48.4336 22.5352C47.8187 22.5352 47.3203 23.3659 47.3203 24.3906C47.3203 25.4154 47.8187 26.2461 48.4336 26.2461Z" fill="#D9CF8D"/>
<path opacity="0.7" d="M44.5 29.0293C45.9346 29.0293 47.0977 28.1986 47.0977 27.1738C47.0977 26.1491 45.9346 25.3184 44.5 25.3184C43.0654 25.3184 41.9023 26.1491 41.9023 27.1738C41.9023 28.1986 43.0654 29.0293 44.5 29.0293Z" fill="#82AE46"/>
<path opacity="0.7" d="M40.5664 26.0605C40.9763 26.0605 41.3086 25.396 41.3086 24.5762C41.3086 23.7564 40.9763 23.0918 40.5664 23.0918C40.1565 23.0918 39.8242 23.7564 39.8242 24.5762C39.8242 25.396 40.1565 26.0605 40.5664 26.0605Z" fill="#82AE46"/>
<path opacity="0.7" d="M42.9785 24.1309C43.5524 24.1309 44.0176 23.3334 44.0176 22.3496C44.0176 21.3659 43.5524 20.5684 42.9785 20.5684C42.4047 20.5684 41.9395 21.3659 41.9395 22.3496C41.9395 23.3334 42.4047 24.1309 42.9785 24.1309Z" fill="#82AE46"/>
<path opacity="0.7" d="M46.0215 24.1309C46.5953 24.1309 47.0605 23.3334 47.0605 22.3496C47.0605 21.3659 46.5953 20.5684 46.0215 20.5684C45.4476 20.5684 44.9824 21.3659 44.9824 22.3496C44.9824 23.3334 45.4476 24.1309 46.0215 24.1309Z" fill="#82AE46"/>
<path opacity="0.7" d="M48.4336 26.0605C48.8435 26.0605 49.1758 25.396 49.1758 24.5762C49.1758 23.7564 48.8435 23.0918 48.4336 23.0918C48.0237 23.0918 47.6914 23.7564 47.6914 24.5762C47.6914 25.396 48.0237 26.0605 48.4336 26.0605Z" fill="#82AE46"/>
<path d="M114.728 24.6045C115.251 24.9065 115.859 24.8333 116.086 24.4409C116.312 24.0486 116.072 23.4857 115.549 23.1837C115.026 22.8816 114.418 22.9548 114.191 23.3472C113.965 23.7395 114.205 24.3024 114.728 24.6045Z" fill="#D9CF8D"/>
<path d="M114.02 22.9327C114.216 23.0459 114.528 22.8727 114.717 22.5457C114.906 22.2188 114.9 21.8619 114.704 21.7486C114.508 21.6354 114.196 21.8086 114.007 22.1356C113.818 22.4625 113.824 22.8194 114.02 22.9327Z" fill="#D9CF8D"/>
<path d="M115.145 22.7613C115.394 22.9048 115.773 22.7136 115.992 22.3343C116.211 21.9551 116.187 21.5313 115.938 21.3878C115.69 21.2444 115.311 21.4355 115.092 21.8148C114.873 22.1941 114.897 22.6178 115.145 22.7613Z" fill="#D9CF8D"/>
<path d="M116.116 23.3218C116.365 23.4653 116.744 23.2742 116.963 22.8949C117.182 22.5156 117.158 22.0918 116.909 21.9484C116.661 21.8049 116.282 21.9961 116.063 22.3753C115.844 22.7546 115.868 23.1784 116.116 23.3218Z" fill="#D9CF8D"/>
<path d="M116.53 24.3819C116.726 24.4951 117.039 24.3219 117.227 23.9949C117.416 23.668 117.41 23.3111 117.214 23.1979C117.018 23.0846 116.706 23.2578 116.517 23.5848C116.328 23.9117 116.334 24.2686 116.53 24.3819Z" fill="#D9CF8D"/>
<path opacity="0.7" d="M114.763 24.5453C115.22 24.8096 115.744 24.7587 115.933 24.4318C116.122 24.1048 115.904 23.6255 115.446 23.3613C114.988 23.097 114.464 23.1478 114.276 23.4748C114.087 23.8017 114.305 24.281 114.763 24.5453Z" fill="#C7BC73"/>
<path opacity="0.7" d="M114.054 22.8735C114.185 22.949 114.414 22.7981 114.565 22.5366C114.716 22.275 114.732 22.0017 114.601 21.9262C114.47 21.8507 114.242 22.0016 114.091 22.2631C113.94 22.5247 113.924 22.7979 114.054 22.8735Z" fill="#C7BC73"/>
<path opacity="0.7" d="M115.179 22.7021C115.363 22.8078 115.658 22.6391 115.839 22.3252C116.02 22.0113 116.019 21.6712 115.836 21.5654C115.653 21.4597 115.357 21.6285 115.176 21.9424C114.995 22.2562 114.996 22.5964 115.179 22.7021Z" fill="#C7BC73"/>
<path opacity="0.7" d="M116.15 23.2626C116.333 23.3684 116.629 23.1996 116.81 22.8857C116.991 22.5718 116.99 22.2317 116.807 22.126C116.623 22.0203 116.328 22.189 116.147 22.5029C115.966 22.8168 115.967 23.1569 116.15 23.2626Z" fill="#C7BC73"/>
<path opacity="0.7" d="M116.564 24.3227C116.695 24.3982 116.924 24.2473 117.075 23.9858C117.226 23.7242 117.242 23.451 117.111 23.3755C116.981 23.2999 116.752 23.4508 116.601 23.7123C116.45 23.9739 116.434 24.2472 116.564 24.3227Z" fill="#C7BC73"/>
<path d="M117.728 21.6045C118.251 21.9065 118.859 21.8333 119.086 21.4409C119.312 21.0486 119.072 20.4857 118.549 20.1837C118.026 19.8816 117.418 19.9548 117.191 20.3472C116.965 20.7395 117.205 21.3024 117.728 21.6045Z" fill="#D9CF8D"/>
<path d="M117.02 19.9327C117.216 20.0459 117.528 19.8727 117.717 19.5457C117.906 19.2188 117.9 18.8619 117.704 18.7486C117.508 18.6354 117.196 18.8086 117.007 19.1356C116.818 19.4625 116.824 19.8194 117.02 19.9327Z" fill="#D9CF8D"/>
<path d="M118.145 19.7613C118.394 19.9048 118.773 19.7136 118.992 19.3343C119.211 18.9551 119.187 18.5313 118.938 18.3878C118.69 18.2444 118.311 18.4355 118.092 18.8148C117.873 19.1941 117.897 19.6178 118.145 19.7613Z" fill="#D9CF8D"/>
<path d="M119.116 20.3218C119.365 20.4653 119.744 20.2742 119.963 19.8949C120.182 19.5156 120.158 19.0918 119.909 18.9484C119.661 18.8049 119.282 18.9961 119.063 19.3753C118.844 19.7546 118.868 20.1784 119.116 20.3218Z" fill="#D9CF8D"/>
<path d="M119.53 21.3819C119.726 21.4951 120.039 21.3219 120.227 20.9949C120.416 20.668 120.41 20.3111 120.214 20.1979C120.018 20.0846 119.706 20.2578 119.517 20.5848C119.328 20.9117 119.334 21.2686 119.53 21.3819Z" fill="#D9CF8D"/>
<path opacity="0.7" d="M117.763 21.5453C118.22 21.8096 118.744 21.7587 118.933 21.4318C119.122 21.1048 118.904 20.6255 118.446 20.3613C117.988 20.097 117.464 20.1478 117.276 20.4748C117.087 20.8017 117.305 21.281 117.763 21.5453Z" fill="#C7BC73"/>
<path opacity="0.7" d="M117.054 19.8735C117.185 19.949 117.414 19.7981 117.565 19.5366C117.716 19.275 117.732 19.0017 117.601 18.9262C117.47 18.8507 117.242 19.0016 117.091 19.2631C116.94 19.5247 116.924 19.7979 117.054 19.8735Z" fill="#C7BC73"/>
<path opacity="0.7" d="M118.179 19.7021C118.363 19.8078 118.658 19.6391 118.839 19.3252C119.02 19.0113 119.019 18.6712 118.836 18.5654C118.653 18.4597 118.357 18.6285 118.176 18.9424C117.995 19.2562 117.996 19.5964 118.179 19.7021Z" fill="#C7BC73"/>
<path opacity="0.7" d="M119.15 20.2626C119.333 20.3684 119.629 20.1996 119.81 19.8857C119.991 19.5718 119.99 19.2317 119.807 19.126C119.623 19.0203 119.328 19.189 119.147 19.5029C118.966 19.8168 118.967 20.1569 119.15 20.2626Z" fill="#C7BC73"/>
<path opacity="0.7" d="M119.564 21.3227C119.695 21.3982 119.924 21.2473 120.075 20.9858C120.226 20.7242 120.242 20.451 120.111 20.3755C119.981 20.2999 119.752 20.4508 119.601 20.7123C119.45 20.9739 119.434 21.2472 119.564 21.3227Z" fill="#C7BC73"/>
<path d="M116.728 17.6045C117.251 17.9065 117.859 17.8333 118.086 17.4409C118.312 17.0486 118.072 16.4857 117.549 16.1837C117.026 15.8816 116.418 15.9548 116.191 16.3472C115.965 16.7395 116.205 17.3024 116.728 17.6045Z" fill="#D9CF8D"/>
<path d="M116.02 15.9327C116.216 16.0459 116.528 15.8727 116.717 15.5457C116.906 15.2188 116.9 14.8619 116.704 14.7486C116.508 14.6354 116.196 14.8086 116.007 15.1356C115.818 15.4625 115.824 15.8194 116.02 15.9327Z" fill="#D9CF8D"/>
<path d="M117.145 15.7613C117.394 15.9048 117.773 15.7136 117.992 15.3343C118.211 14.9551 118.187 14.5313 117.938 14.3878C117.69 14.2444 117.311 14.4355 117.092 14.8148C116.873 15.1941 116.897 15.6178 117.145 15.7613Z" fill="#D9CF8D"/>
<path d="M118.116 16.3218C118.365 16.4653 118.744 16.2742 118.963 15.8949C119.182 15.5156 119.158 15.0918 118.909 14.9484C118.661 14.8049 118.282 14.9961 118.063 15.3753C117.844 15.7546 117.868 16.1784 118.116 16.3218Z" fill="#D9CF8D"/>
<path d="M118.53 17.3819C118.726 17.4951 119.039 17.3219 119.227 16.9949C119.416 16.668 119.41 16.3111 119.214 16.1979C119.018 16.0846 118.706 16.2578 118.517 16.5848C118.328 16.9117 118.334 17.2686 118.53 17.3819Z" fill="#D9CF8D"/>
<path opacity="0.7" d="M116.763 17.5453C117.22 17.8096 117.744 17.7587 117.933 17.4318C118.122 17.1048 117.904 16.6255 117.446 16.3613C116.988 16.097 116.464 16.1478 116.276 16.4748C116.087 16.8017 116.305 17.281 116.763 17.5453Z" fill="#C7BC73"/>
<path opacity="0.7" d="M116.054 15.8735C116.185 15.949 116.414 15.7981 116.565 15.5366C116.716 15.275 116.732 15.0017 116.601 14.9262C116.47 14.8507 116.242 15.0016 116.091 15.2631C115.94 15.5247 115.924 15.7979 116.054 15.8735Z" fill="#C7BC73"/>
<path opacity="0.7" d="M117.179 15.7021C117.363 15.8078 117.658 15.6391 117.839 15.3252C118.02 15.0113 118.019 14.6712 117.836 14.5654C117.653 14.4597 117.357 14.6285 117.176 14.9424C116.995 15.2562 116.996 15.5964 117.179 15.7021Z" fill="#C7BC73"/>
<path opacity="0.7" d="M118.15 16.2626C118.333 16.3684 118.629 16.1996 118.81 15.8857C118.991 15.5718 118.99 15.2317 118.807 15.126C118.623 15.0203 118.328 15.189 118.147 15.5029C117.966 15.8168 117.967 16.1569 118.15 16.2626Z" fill="#C7BC73"/>
<path opacity="0.7" d="M118.564 17.3227C118.695 17.3982 118.924 17.2473 119.075 16.9858C119.226 16.7242 119.242 16.451 119.111 16.3755C118.981 16.2999 118.752 16.4508 118.601 16.7123C118.45 16.9739 118.434 17.2472 118.564 17.3227Z" fill="#C7BC73"/>
</svg>
